<svg id="Layer_2" data-name="Layer 2" xmlns="http://www.w3.org/2000/svg" viewBox="0 0 281 408"><defs><style>.cls-1,.cls-2{fill:none;stroke-miterlimit:10;}.cls-1{stroke:#000;}.cls-2{stroke:red;}</style></defs><title>lines</title><path class="cls-1" d="M1509,1706c-58-5-81-5-89-3a28,28,0,0,1-15-1c-2-1-6-2-8-6s-1-8-3-15-3-8-7-10-6-2-20,0l-17,3c-9,1-16,2-25,2a80,80,0,0,1-19-4c-9-3-16-5-24-11s-16-19-19-26a93,93,0,0,1-7-21c-2-10-2-16,0-42s3-42-1-55a104,104,0,0,0-5-12c-5-10-8-10-10-17s-5-13,0-23,5-5,7-11a33,33,0,0,0,2-18c-1-6-3-5-6-15s-4-16-3-20,1-4,3-6,10-3,18-2l25,2,25,2h25c7,1,11,2,14-1s1-12,3-12,2,8,8,12,6,1,13,1,13-3,20-2,8,3,11,1,2-3,6-5l8-2c4-1,5-1,7,0s0,4,1,8,1,5,3,6,3-2,8-3h6c2-2,0-5,2-8s2-2,18-2h10l9,6,6,3c3,0,4-3,9-6s5-1,8-3,4-6,4-8-1-5,0-9,4-7,6-15a26,26,0,0,0,1-9c0-3-1-4-1-7a20,20,0,0,1,2-8,26,26,0,0,1,4-7l5-5-2-11" transform="translate(-1232 -1298)"/><path class="cls-2" d="M1513,1701c-32,6-40,2-42-2s0-3,0-8,0-17,1-25,0-23,1-38c0-32,0-48,0-51s-7-26,0-33,7-5,8-10,1-3,0-11l-2-13a92,92,0,0,1,0-15c0-12,1-18,5-22s3-2,4-4,0-4,1-8,1-3,3-8l2-8,3-12" transform="translate(-1232 -1298)"/></svg>