<?xml version="1.0" encoding="UTF-8" standalone="no"?>
<svg
   xmlns:dc="http://purl.org/dc/elements/1.1/"
   xmlns:cc="http://creativecommons.org/ns#"
   xmlns:rdf="http://www.w3.org/1999/02/22-rdf-syntax-ns#"
   xmlns:svg="http://www.w3.org/2000/svg"
   xmlns="http://www.w3.org/2000/svg"
   id="svg8"
   version="1.1"
   viewBox="0 0 297 210"
   height="793.70081"
   width="1122.5197">
  <defs
     id="defs2" />
  <metadata
     id="metadata5">
    <rdf:RDF>
      <cc:Work
         rdf:about="">
        <dc:format>image/svg+xml</dc:format>
        <dc:type
           rdf:resource="http://purl.org/dc/dcmitype/StillImage" />
        <dc:title></dc:title>
      </cc:Work>
    </rdf:RDF>
  </metadata>
  <g
     style="display:inline"
     id="layer3">
    <path
       id="path829-7"
       d="m 158.22356,182.73852 -39.5559,-0.80181 -9.6217,-12.2944 -16.57071,1.60362 -5.87993,0.80181 -10.156242,-3.20724 -9.087164,-7.21627 -8.819894,-13.63075 1.069079,-38.48682 -6.949009,-12.027134 v -8.018074 l 3.474503,-5.078122 -0.801807,-7.75082 -2.405427,-5.879928 0.267271,-8.018093 40.3577,-0.267268 1.87089,-5.078119 1.60361,3.74178 19.2434,1.069078 0.80182,-2.138159 5.61265,-1.069081 -0.53454,4.543581 2.6727,-0.267271 2.93996,-2.138148 1.60362,-2.138162 6.1472,0.534541 9.08716,1.870889 v 0 l 8.0181,-2.93997 0.26726,-4.81085 -1.06908,-10.69078 -2.6727,-3.20724 v -6.68173 l 2.40543,-1.60362 8.8199,-4.00904"
       style="display:inline;fill:none;stroke:#043aff;stroke-width:1.36500001;stroke-linecap:butt;stroke-linejoin:miter;stroke-miterlimit:4;stroke-dasharray:none;stroke-opacity:1" />
    <path
       id="path827"
       d="m 158.22356,182.73851 -14.16529,1.06908 v -61.20472 l 2.6727,-4.54358 -0.80181,-1.60362 -0.53454,-11.49259 0.26727,-6.949009 0.80181,-2.672689 1.87089,-1.870891 v -4.54358 l 2.40542,-3.74177"
       style="display:inline;fill:none;stroke:#ff0303;stroke-width:1.56500006;stroke-linecap:butt;stroke-linejoin:miter;stroke-miterlimit:4;stroke-dasharray:none;stroke-opacity:1" />
  </g>
</svg>
