<?xml version="1.0" encoding="utf-8"?>
<!-- Generator: Adobe Illustrator 21.1.0, SVG Export Plug-In . SVG Version: 6.00 Build 0)  -->
<svg version="1.1" xmlns="http://www.w3.org/2000/svg" xmlns:xlink="http://www.w3.org/1999/xlink" x="0px" y="0px"
	 viewBox="0 0 1253 785" style="enable-background:new 0 0 1253 785;" xml:space="preserve">
<style type="text/css">
	.st0{display:none;}
	.st1{display:inline;fill:none;stroke:#000000;stroke-miterlimit:10;}
	.st2{fill:none;stroke:#000000;stroke-miterlimit:10;}
</style>
<g id="Layer_1" class="st0">
	
		<image style="display:inline;overflow:visible;" width="1253" height="785" xlink:href="../../../Users/optimac/Pictures/mar2.png" >
	</image>
</g>
<g id="Layer_2" class="st0">
	<path class="st1" d="M924,466c-21.6-15-40.9-22.2-54-26c-20.8-6-39.8-7-78-9c-20.6-1.1-30.9-1.6-36-1c-31.7,3.9-38.7,19.4-83,42
		c-35.4,18.1-34.6,10-70,29c-13.7,7.3-25.8,15-45,18c-15,2.4-29.3,1.2-38-1c-32.1-8-46.1-43.4-73-95c-34.8-66.8-52.3-100.2-72-118
		c-43.8-39.5-69.4-25.2-111-72c-14.8-16.7-24.2-32.7-47-41c-19.2-7-31.3-2.4-59-6c-25.2-3.3-45.1-11-58-17"/>
</g>
<g id="Layer_3">
	<path class="st2" d="M1189,678c-28,2.1-51,0.2-67-2c-39.3-5.5-51.4-14.9-56-19c-12.2-10.8-17-23.7-19-29
		c-13.3-34.4-47.6-93.6-85-130c-10.8-10.5-72.5-68.3-156-68c-62.7,0.2-119.9,33.2-137,43c-32.9,18.9-57,40.7-102,47
		c-17,2.4-33.7,4.7-52-2c-31.2-11.5-41.5-39.8-73-102c-38.6-76.2-58.4-114.6-81-131c-37.8-27.4-56.5-13.7-92-48
		c-18.7-18.1-30.3-38.1-58-47c-15.6-5-30-4.4-40-3"/>
</g>
</svg>
