<svg id="Layer_2" data-name="Layer 2" xmlns="http://www.w3.org/2000/svg" viewBox="0 0 1149 459"><defs><style>.cls-1{fill:none;stroke:red;stroke-miterlimit:10;}</style></defs><title>a4</title><path class="cls-1" d="M920,1379a87,87,0,0,1,19-26c9-8,17-13,24-16s21-8,36-12l44-9,25-6c13-2,20-3,29-2s16,5,26,11,13,9,28,20l25,18c24,16,32,13,52,24s24,21,46,47c11,14,22,27,34,46a419,419,0,0,1,33,68c7,19,9,30,20,44a85,85,0,0,0,26,23c24,14,49,10,57,9,19-3,21-9,61-29s31-12,65-29,40-25,58-28,32,0,60,5,51,10,72,20c38,18,61,46,73,62s25,39,57,94c11,19,17,30,30,38s30,10,64,13,50,1,58-1l26-7" transform="translate(-920 -1307)"/></svg>